<svg width="24" height="28" viewBox="0 0 24 28" fill="none" xmlns="http://www.w3.org/2000/svg">
<path d="M18.6667 27.3333H5.33333C3.86057 27.3333 2.66667 26.1394 2.66667 24.6667V7.33333H0V4.66666H5.33333V3.33333C5.33333 1.86057 6.52724 0.666664 8 0.666664H16C17.4728 0.666664 18.6667 1.86057 18.6667 3.33333V4.66666H24V7.33333H21.3333V24.6667C21.3333 26.1394 20.1394 27.3333 18.6667 27.3333ZM5.33333 7.33333V24.6667H18.6667V7.33333H5.33333ZM8 3.33333V4.66666H16V3.33333H8ZM16 22H13.3333V10H16V22ZM10.6667 22H8V10H10.6667V22Z" fill="#333333"/>
</svg>
