<svg width="25" height="25" viewBox="0 0 25 25" fill="none" xmlns="http://www.w3.org/2000/svg">
<path d="M1.89334 24.4387C1.51932 24.438 1.16276 24.2803 0.910673 24.004C0.653934 23.7299 0.526359 23.3594 0.560007 22.9853L0.886673 19.3933L15.9773 4.308L20.6933 9.02267L5.60667 24.1067L2.01467 24.4333C1.97334 24.4373 1.93201 24.4387 1.89334 24.4387ZM21.6347 8.08L16.92 3.36533L19.748 0.537335C19.9981 0.286965 20.3375 0.146286 20.6913 0.146286C21.0452 0.146286 21.3846 0.286965 21.6347 0.537335L24.4627 3.36533C24.713 3.61543 24.8537 3.95479 24.8537 4.30867C24.8537 4.66255 24.713 5.00191 24.4627 5.252L21.636 8.07867L21.6347 8.08Z" fill="#333333"/>
</svg>
